<svg width="96" height="31" viewBox="0 0 96 31" fill="none" xmlns="http://www.w3.org/2000/svg">
<rect width="96" height="31" rx="3" fill="white"/>
<rect x="0.5" y="0.5" width="95" height="30" rx="2.5" stroke="#5970FF" stroke-opacity="0.51"/>
<path d="M43.4454 16.3004C43.4454 19.1164 41.2424 21.1915 38.5389 21.1915C35.8353 21.1915 33.6323 19.1164 33.6323 16.3004C33.6323 13.4646 35.8353 11.4093 38.5389 11.4093C41.2424 11.4093 43.4454 13.4646 43.4454 16.3004ZM41.2975 16.3004C41.2975 14.5407 40.0207 13.3367 38.5389 13.3367C37.057 13.3367 35.7802 14.5407 35.7802 16.3004C35.7802 18.0425 37.057 19.2642 38.5389 19.2642C40.0207 19.2642 41.2975 18.0403 41.2975 16.3004Z" fill="#EA4335"/>
<path d="M54.0303 16.3004C54.0303 19.1164 51.8274 21.1915 49.1238 21.1915C46.4203 21.1915 44.2173 19.1164 44.2173 16.3004C44.2173 13.4668 46.4203 11.4093 49.1238 11.4093C51.8274 11.4093 54.0303 13.4646 54.0303 16.3004ZM51.8825 16.3004C51.8825 14.5407 50.6057 13.3367 49.1238 13.3367C47.6419 13.3367 46.3651 14.5407 46.3651 16.3004C46.3651 18.0425 47.6419 19.2642 49.1238 19.2642C50.6057 19.2642 51.8825 18.0403 51.8825 16.3004Z" fill="#FBBC05"/>
<path d="M64.1743 11.7048V20.4859C64.1743 24.0979 62.0441 25.5732 59.5258 25.5732C57.1552 25.5732 55.7284 23.9877 55.1904 22.691L57.0604 21.9126C57.3934 22.7087 58.2093 23.6481 59.5236 23.6481C61.1355 23.6481 62.1345 22.6536 62.1345 20.7814V20.0779H62.0595C61.5788 20.6711 60.6526 21.1893 59.4839 21.1893C57.0383 21.1893 54.7979 19.0591 54.7979 16.3181C54.7979 13.5572 57.0383 11.4093 59.4839 11.4093C60.6504 11.4093 61.5766 11.9275 62.0595 12.5031H62.1345V11.707H64.1743V11.7048ZM62.2867 16.3181C62.2867 14.5958 61.1378 13.3367 59.6757 13.3367C58.1938 13.3367 56.9523 14.5958 56.9523 16.3181C56.9523 18.0227 58.1938 19.2642 59.6757 19.2642C61.1378 19.2642 62.2867 18.0227 62.2867 16.3181Z" fill="#4285F4"/>
<path d="M67.5373 6.55792V20.8916H65.4424V6.55792H67.5373Z" fill="#34A853"/>
<path d="M75.7006 17.9102L77.3677 19.0216C76.8297 19.8177 75.533 21.1893 73.2926 21.1893C70.514 21.1893 68.439 19.0414 68.439 16.2982C68.439 13.3896 70.5317 11.4071 73.0522 11.4071C75.5904 11.4071 76.8319 13.4271 77.2376 14.5186L77.4604 15.0743L70.922 17.7823C71.4226 18.7636 72.201 19.2642 73.2926 19.2642C74.3863 19.2642 75.1449 18.7261 75.7006 17.9102ZM70.5692 16.1505L74.9398 14.3356C74.6995 13.7248 73.9762 13.2992 73.125 13.2992C72.0334 13.2992 70.514 14.2628 70.5692 16.1505Z" fill="#EA4335"/>
<path d="M25.7027 15.028V12.9529H32.6953C32.7637 13.3146 32.799 13.7424 32.799 14.2055C32.799 15.7623 32.3734 17.6875 31.0018 19.0591C29.6676 20.4484 27.963 21.1893 25.7049 21.1893C21.5195 21.1893 18 17.7801 18 13.5946C18 9.40921 21.5195 6 25.7049 6C28.0203 6 29.6698 6.90853 30.9091 8.09272L29.4449 9.55696C28.5562 8.7234 27.3522 8.07508 25.7027 8.07508C22.6463 8.07508 20.2559 10.5383 20.2559 13.5946C20.2559 16.651 22.6463 19.1142 25.7027 19.1142C27.6852 19.1142 28.8142 18.3181 29.5375 17.5948C30.1241 17.0083 30.51 16.1703 30.6622 15.0258L25.7027 15.028Z" fill="#4285F4"/>
</svg>
