<!DOCTYPE svg PUBLIC "-//W3C//DTD SVG 1.1//EN" "http://www.w3.org/Graphics/SVG/1.1/DTD/svg11.dtd">
<!-- Uploaded to: SVG Repo, www.svgrepo.com, Transformed by: SVG Repo Mixer Tools -->
<svg width="800px" height="800px" viewBox="-6.4 -6.4 140.80 140.80" xmlns="http://www.w3.org/2000/svg" fill="#029491" stroke="#029491" stroke-width="1.92">
<g id="SVGRepo_bgCarrier" stroke-width="0"/>
<g id="SVGRepo_tracerCarrier" stroke-linecap="round" stroke-linejoin="round"/>
<g id="SVGRepo_iconCarrier"> <defs> <style>.cls-1{fill:#029491;}</style> </defs> <title/> <g data-name="Layer 2" id="Layer_2"> <g id="Export"> <path class="cls-1" d="M64,3A61,61,0,1,1,3,64,61.06,61.06,0,0,1,64,3m0-3a64,64,0,1,0,64,64A64,64,0,0,0,64,0Z"/> <path class="cls-1" d="M64,94.81c-.93,0-1.87,0-2.84-.1a40.4,40.4,0,0,1-20.23-7.22A1.5,1.5,0,1,1,42.6,85a37.39,37.39,0,0,0,18.72,6.69A37.93,37.93,0,0,0,85.41,85a1.5,1.5,0,0,1,2.08.38,1.48,1.48,0,0,1-.38,2.08A41.09,41.09,0,0,1,64,94.81Z"/> <path class="cls-1" d="M36.87,60.63a1.53,1.53,0,0,1-.71-.18,1.5,1.5,0,0,1-.61-2,9.39,9.39,0,0,1,16.56,0,1.5,1.5,0,0,1-2.65,1.42,6.39,6.39,0,0,0-11.27,0A1.51,1.51,0,0,1,36.87,60.63Z"/> <path class="cls-1" d="M92.52,60.63a1.51,1.51,0,0,1-1.32-.79,6.39,6.39,0,0,0-11.27,0,1.5,1.5,0,1,1-2.64-1.42,9.38,9.38,0,0,1,16.55,0,1.5,1.5,0,0,1-.61,2A1.53,1.53,0,0,1,92.52,60.63Z"/> </g> </g> </g>
</svg>