<svg width="96" height="31" viewBox="0 0 96 31" fill="none" xmlns="http://www.w3.org/2000/svg">
<rect width="96" height="31" rx="3" fill="white"/>
<rect x="0.5" y="0.5" width="95" height="30" rx="2.5" stroke="#5970FF" stroke-opacity="0.51"/>
<path d="M73.5368 21.1224C74.6384 21.1224 75.4188 20.9235 76.0002 20.4951V18.5519C75.4035 18.965 74.6843 19.2251 73.6745 19.2251C71.9762 19.2251 71.2723 17.9093 71.2723 15.8284C71.2723 13.6404 72.1292 12.5235 73.6898 12.5235C74.6078 12.5235 75.5106 12.8448 75.9849 13.1508V11.1311C75.48 10.8557 74.6078 10.6568 73.4144 10.6568C70.3696 10.6568 68.7936 12.8448 68.7936 15.9049C68.8089 19.2557 70.3543 21.1224 73.5368 21.1224ZM58.6494 20.235V18.2918C57.9149 18.7967 56.6603 19.2404 55.5128 19.2404C53.7685 19.2404 53.1106 18.4142 53.0035 16.7311H58.7565V15.4765C58.7565 11.9727 57.2111 10.6568 54.8395 10.6568C51.9324 10.6568 50.5554 12.8754 50.5554 15.9202C50.5554 19.424 52.2843 21.1224 55.3139 21.1224C56.8286 21.1224 57.9456 20.7093 58.6494 20.235ZM36.8155 10.8404V14.8186H33.633V10.8404H31.2461V20.9235H33.633V16.7158H36.8155V20.9235H39.2024V10.8404H36.8155ZM49.9587 19.0262H48.9029V10.8404H41.9565V11.6973C41.9565 14.1607 41.8035 17.3432 40.9619 19.0262H40.1969V23.2186H42.4002V20.9235H47.7401V23.2186H49.9434V19.0262H49.9587ZM66.2537 20.9235H68.9619L65.1368 15.4918L68.5029 10.8404H66.1007L62.7346 15.4918V10.8404H60.3477V20.9235H62.7346V15.9661L66.2537 20.9235ZM54.7783 12.5235C55.9565 12.5235 56.3237 13.5027 56.3237 14.7727V14.9716H53.0035C53.0647 13.365 53.6461 12.5235 54.7783 12.5235ZM46.516 19.0262H43.1499C43.8078 17.5115 43.9915 14.7574 43.9915 13.0131V12.7071H46.516V19.0262Z" fill="black"/>
<path d="M29.2568 20.9235H26.824V8.88197H25.7377C23.7486 8.88197 22.7082 9.8765 22.7082 11.3607C22.7082 13.0437 23.4273 13.824 24.9115 14.8186L26.1355 15.6448L22.6164 20.9235H20L23.1672 16.2109C21.3464 14.9104 20.3213 13.6404 20.3213 11.4984C20.3213 8.82077 22.188 7 25.7224 7H29.2415V20.9235H29.2568Z" fill="#FC3F1D"/>
</svg>
